<svg width="745" height="160" viewBox="0 0 745 160" fill="none" xmlns="http://www.w3.org/2000/svg" role="img" aria-label="Taskrail">
  <g transform="translate(5,5) scale(2.34375)">
    <line x1="6" y1="24" x2="58" y2="24" stroke="#111111" stroke-width="4" stroke-linecap="round"/>
    <line x1="6" y1="40" x2="58" y2="40" stroke="#111111" stroke-width="4" stroke-linecap="round"/>
    <line x1="14" y1="20" x2="14" y2="44" stroke="#111111" stroke-width="4" stroke-linecap="round"/>
    <line x1="26" y1="20" x2="26" y2="44" stroke="#111111" stroke-width="4" stroke-linecap="round"/>
    <line x1="38" y1="20" x2="38" y2="44" stroke="#111111" stroke-width="4" stroke-linecap="round"/>
    <circle cx="50" cy="32" r="6" fill="#111111"/>
  </g>
  <g transform="translate(190.0,0)" fill="#111111">
    <path transform="translate(0.0, 108.0) scale(0.1038, -0.1038)" d="M289.00067138671875 -5.66668701171875Q234.33367919921875 -5.66668701171875 194.16680908203125 10.166717529296875Q153.99993896484375 26.0001220703125 132.16650390625 64.33364868164062Q110.33306884765625 102.66717529296875 110.33306884765625 167.66754150390625V696H182.33428955078125V157.00079345703125Q182.33428955078125 111.33428955078125 207.33419799804688 86.50103759765625Q232.3341064453125 61.66778564453125 277.66729736328125 61.66778564453125H373.3338623046875V-5.66668701171875ZM14.6666259765625 471.9993896484375V529.3336181640625H373.3338623046875V471.9993896484375Z"/>
    <path transform="translate(62.4, 108.0) scale(0.1038, -0.1038)" d="M419.33306884765625 0V158.666748046875H406.66619873046875V347.33319091796875Q406.66619873046875 406.33294677734375 375.8330078125 437.66607666015625Q344.99981689453125 468.99920654296875 279.6671142578125 468.99920654296875Q250.33367919921875 468.99920654296875 219.83352661132812 467.8325500488281Q189.3333740234375 466.6658935546875 161.83322143554688 465.33258056640625Q134.33306884765625 463.999267578125 113.3330078125 461.66595458984375V527.6670532226562Q134.6663818359375 530.0003662109375 157.99978637695312 531.8336791992188Q181.33319091796875 533.6669921875 205.83328247070312 534.3336486816406Q230.3333740234375 535.0003051757812 253.0001220703125 535.0003051757812Q333.6668701171875 535.0003051757812 383.1670227050781 515.0003356933594Q432.66717529296875 495.0003662109375 455.66729736328125 452.3336181640625Q478.66741943359375 409.6668701171875 478.66741943359375 339.9998779296875V0ZM240.33331298828125 -14Q183.999755859375 -14 141.1663818359375 5.8333740234375Q98.3330078125 25.666748046875 74.49969482421875 63.66680908203125Q50.6663818359375 101.6668701171875 50.6663818359375 155.66693115234375Q50.6663818359375 209.33380126953125 75.16644287109375 246.3338623046875Q99.66650390625 283.33392333984375 146.33331298828125 302.6672668457031Q193.0001220703125 322.0006103515625 259.00030517578125 322.0006103515625H413.99969482421875V264.6663818359375H254.33367919921875Q191.333984375 264.6663818359375 157.66748046875 234.33319091796875Q124.0009765625 204 124.0009765625 155.3336181640625Q124.0009765625 105.333984375 159.000732421875 75.66748046875Q194.00048828125 46.0009765625 254.33367919921875 46.0009765625Q291.00018310546875 46.0009765625 325.0 59.667572021484375Q358.99981689453125 73.33416748046875 381.8330078125 105.833984375Q404.66619873046875 138.33380126953125 406.66619873046875 194.6668701171875L429.33306884765625 163.999755859375Q425.3330078125 104.9998779296875 400.9997863769531 65.49993896484375Q376.66656494140625 26 335.83331298828125 6.0Q295.00006103515625 -14 240.33331298828125 -14Z"/>
    <path transform="translate(140.1, 108.0) scale(0.1038, -0.1038)" d="M263.6668701171875 -15.3333740234375Q162 -15.3333740234375 106.99984741210938 29.499969482421875Q51.99969482421875 74.33331298828125 50.66632080078125 148.6668701171875H121.33416748046875Q122.66754150390625 110.66729736328125 155.1673583984375 80.00082397460938Q187.66717529296875 49.3343505859375 263.6668701171875 49.3343505859375Q334.999755859375 49.3343505859375 370.4996643066406 78.8341064453125Q405.99957275390625 108.3338623046875 405.99957275390625 150.000244140625Q405.99957275390625 188.9998779296875 376.66650390625 210.33303833007812Q347.33343505859375 231.66619873046875 291.0001220703125 237.66619873046875L231.000244140625 243.99951171875Q158.66668701171875 251.99951171875 114.3331298828125 288.3329162597656Q69.99957275390625 324.66632080078125 69.99957275390625 388.66656494140625Q69.99957275390625 435.66680908203125 93.99969482421875 470.83355712890625Q117.99981689453125 506.00030517578125 161.6666259765625 525.6669616699219Q205.33343505859375 545.3336181640625 263.6668701171875 545.3336181640625Q349.33380126953125 545.3336181640625 402.66729736328125 505.3336181640625Q456.00079345703125 465.3336181640625 457.33416748046875 391.33331298828125H386.66632080078125Q386.33294677734375 428.9996337890625 354.9997863769531 454.832763671875Q323.6666259765625 480.6658935546875 263.6668701171875 480.6658935546875Q202.00054931640625 480.6658935546875 171.333984375 453.6661376953125Q140.66741943359375 426.6663818359375 140.66741943359375 387.99993896484375Q140.66741943359375 355.33343505859375 163.66726684570312 333.8336486816406Q186.6671142578125 312.3338623046875 236.00030517578125 307.00054931640625L296.00018310546875 300.667236328125Q376.00054931640625 292.3338623046875 426.333984375 255.1671142578125Q476.66741943359375 218.0003662109375 476.66741943359375 149.3336181640625Q476.66741943359375 102.0001220703125 450.16729736328125 64.66671752929688Q423.66717529296875 27.33331298828125 376.0003662109375 5.999969482421875Q328.33355712890625 -15.3333740234375 263.6668701171875 -15.3333740234375Z"/>
    <path transform="translate(213.7, 108.0) scale(0.1038, -0.1038)" d="M457.00018310546875 0 244.334228515625 248.00006103515625H158.3341064453125L409.00042724609375 529.3336181640625H489.33502197265625L264.335205078125 277.6666259765625L268.668701171875 319.3338623046875L544.6682739257812 0ZM97.3330078125 0V730H172.0009765625V0Z"/>
    <path transform="translate(289.4, 108.0) scale(0.1038, -0.1038)" d="M97.3330078125 0V529.3336181640625H156.6673583984375V308.33367919921875H150.66748046875Q150.66748046875 424.00042724609375 201.83416748046875 479.3337097167969Q253.0008544921875 534.6669921875 361.66717529296875 534.6669921875H379.3338623046875V467.33251953125H348.33367919921875Q262.000732421875 467.33251953125 217.0008544921875 422.49932861328125Q172.0009765625 377.6661376953125 172.0009765625 291.66650390625V0Z"/>
    <path transform="translate(349.9, 108.0) scale(0.1038, -0.1038)" d="M419.33306884765625 0V158.666748046875H406.66619873046875V347.33319091796875Q406.66619873046875 406.33294677734375 375.8330078125 437.66607666015625Q344.99981689453125 468.99920654296875 279.6671142578125 468.99920654296875Q250.33367919921875 468.99920654296875 219.83352661132812 467.8325500488281Q189.3333740234375 466.6658935546875 161.83322143554688 465.33258056640625Q134.33306884765625 463.999267578125 113.3330078125 461.66595458984375V527.6670532226562Q134.6663818359375 530.0003662109375 157.99978637695312 531.8336791992188Q181.33319091796875 533.6669921875 205.83328247070312 534.3336486816406Q230.3333740234375 535.0003051757812 253.0001220703125 535.0003051757812Q333.6668701171875 535.0003051757812 383.1670227050781 515.0003356933594Q432.66717529296875 495.0003662109375 455.66729736328125 452.3336181640625Q478.66741943359375 409.6668701171875 478.66741943359375 339.9998779296875V0ZM240.33331298828125 -14Q183.999755859375 -14 141.1663818359375 5.8333740234375Q98.3330078125 25.666748046875 74.49969482421875 63.66680908203125Q50.6663818359375 101.6668701171875 50.6663818359375 155.66693115234375Q50.6663818359375 209.33380126953125 75.16644287109375 246.3338623046875Q99.66650390625 283.33392333984375 146.33331298828125 302.6672668457031Q193.0001220703125 322.0006103515625 259.00030517578125 322.0006103515625H413.99969482421875V264.6663818359375H254.33367919921875Q191.333984375 264.6663818359375 157.66748046875 234.33319091796875Q124.0009765625 204 124.0009765625 155.3336181640625Q124.0009765625 105.333984375 159.000732421875 75.66748046875Q194.00048828125 46.0009765625 254.33367919921875 46.0009765625Q291.00018310546875 46.0009765625 325.0 59.667572021484375Q358.99981689453125 73.33416748046875 381.8330078125 105.833984375Q404.66619873046875 138.33380126953125 406.66619873046875 194.6668701171875L429.33306884765625 163.999755859375Q425.3330078125 104.9998779296875 400.9997863769531 65.49993896484375Q376.66656494140625 26 335.83331298828125 6.0Q295.00006103515625 -14 240.33331298828125 -14Z"/>
    <path transform="translate(427.7, 108.0) scale(0.1038, -0.1038)" d="M124.666259765625 0V529.3336181640625H199.334228515625V0ZM39.999755859375 468.666015625V529.3336181640625H199.334228515625V468.666015625ZM140.66693115234375 627.3328857421875Q113.99993896484375 627.3328857421875 100.66647338867188 641.6663818359375Q87.3330078125 655.9998779296875 87.3330078125 678.170654296875Q87.3330078125 700.3414306640625 100.66647338867188 714.8377075195312Q113.99993896484375 729.333984375 140.83358764648438 729.333984375Q167.667236328125 729.333984375 180.83404541015625 714.8377075195312Q194.0008544921875 700.3414306640625 194.0008544921875 678.170654296875Q194.0008544921875 655.9998779296875 180.87901621016243 641.6663818359375Q167.7571779281374 627.3328857421875 140.66693115234375 627.3328857421875Z"/>
    <path transform="translate(477.4, 108.0) scale(0.1038, -0.1038)" d="M101.999755859375 0V730H176.667724609375V0ZM25.333251953125 669.3323974609375V730H176.667724609375V669.3323974609375Z"/>
  </g>
</svg>
